<?xml version="1.0" standalone="no"?>
<!DOCTYPE svg PUBLIC "-//W3C//DTD SVG 20010904//EN"
 "http://www.w3.org/TR/2001/REC-SVG-20010904/DTD/svg10.dtd">
<svg version="1.0" xmlns="http://www.w3.org/2000/svg"
 width="163.000000pt" height="216.000000pt" viewBox="0 0 163.000000 216.000000"
 preserveAspectRatio="xMidYMid meet">

<g transform="translate(0.000000,216.000000) scale(0.100000,-0.100000)"
fill="#000000" stroke="none">
<path d="M1509 2095 c-3 -2 -39 -9 -80 -15 -266 -37 -547 -143 -723 -274 -125
-93 -214 -194 -271 -306 -52 -104 -69 -173 -69 -285 -1 -172 63 -307 187 -397
16 -12 16 -18 2 -83 -15 -73 -21 -235 -7 -235 4 0 19 63 34 139 97 500 386
1017 717 1284 77 63 201 139 254 156 20 7 37 14 37 17 0 6 -76 5 -81 -1z"/>
<path d="M53 1343 c4 -608 3 -597 73 -738 63 -124 158 -237 288 -340 20 -16
43 -35 49 -40 32 -28 164 -110 241 -150 l87 -45 47 23 c49 24 223 126 232 136
3 3 25 20 50 36 71 48 236 213 284 285 24 37 56 93 70 124 55 120 56 138 54
723 l-3 538 -32 -81 c-18 -45 -62 -202 -99 -350 -65 -267 -87 -333 -146 -449
-86 -168 -225 -273 -375 -283 l-73 -5 0 -318 c0 -201 -4 -319 -10 -319 -25 0
-236 129 -320 196 -67 53 -207 201 -247 260 -44 66 -79 143 -99 219 -11 39
-14 165 -14 560 l0 511 113 12 c61 7 170 17 242 23 71 5 131 12 134 15 2 2
-120 4 -273 4 l-277 0 4 -547z"/>
</g>
</svg>
